HIERARCHY
ROOT hip
{
  OFFSET 302.036 85.6087 -21.0618
  CHANNELS 6 Xposition Yposition Zposition Zrotation Xrotation Yrotation
  JOINT abdomen
  {
    OFFSET 0 20.6881 -0.73152
    CHANNELS 3 Zrotation Xrotation Yrotation
    JOINT chest
    {
      OFFSET 0 11.7043 -0.48768
      CHANNELS 3 Zrotation Xrotation Yrotation
      JOINT neck
      {
        OFFSET 0 22.1894 -2.19456
        CHANNELS 3 Zrotation Xrotation Yrotation
        JOINT head
        {
          OFFSET -0.24384 7.07133 1.2192
          CHANNELS 3 Zrotation Xrotation Yrotation
          JOINT leftEye
          {
            OFFSET 4.14528 8.04674 8.04672
            CHANNELS 3 Zrotation Xrotation Yrotation
            End Site
            {
              OFFSET 1 0 0
            }
          }
          JOINT rightEye
          {
            OFFSET -3.6576 8.04674 8.04672
            CHANNELS 3 Zrotation Xrotation Yrotation
            End Site
            {
              OFFSET 1 0 0
            }
          }
        }
      }
      JOINT rCollar
      {
        OFFSET -2.68224 19.2634 -4.8768
        CHANNELS 3 Zrotation Xrotation Yrotation
        JOINT rShldr
        {
          OFFSET -8.77824 -1.95073 1.46304
          CHANNELS 3 Zrotation Xrotation Yrotation
          JOINT rForeArm
          {
            OFFSET -28.1742 -1.7115 0.48768
            CHANNELS 3 Zrotation Xrotation Yrotation
            JOINT rHand
            {
              OFFSET -22.5879 0.773209 7.07136
              CHANNELS 3 Zrotation Xrotation Yrotation
              JOINT rThumb1
              {
                OFFSET -1.2192 -0.487915 3.41376
                CHANNELS 3 Zrotation Xrotation Yrotation
                JOINT rThumb2
                {
                  OFFSET -3.37035 -0.52449 3.41376
                  CHANNELS 3 Zrotation Xrotation Yrotation
                  End Site
                  {
                    OFFSET -1.78271 -1.18214 1.43049
                  }
                }
              }
              JOINT rIndex1
              {
                OFFSET -7.75947 0.938293 5.60832
                CHANNELS 3 Zrotation Xrotation Yrotation
                JOINT rIndex2
                {
                  OFFSET -2.54057 -0.884171 1.56538
                  CHANNELS 3 Zrotation Xrotation Yrotation
                  End Site
                  {
                    OFFSET -1.62519 -0.234802 1.16502
                  }
                }
              }
              JOINT rMid1
              {
                OFFSET -8.24714 1.18213 3.41376
                CHANNELS 3 Zrotation Xrotation Yrotation
                JOINT rMid2
                {
                  OFFSET -3.10165 -0.590103 1.0647
                  CHANNELS 3 Zrotation Xrotation Yrotation
                  End Site
                  {
                    OFFSET -2.48547 -0.328903 0.83742
                  }
                }
              }
              JOINT rRing1
              {
                OFFSET -8.82822 0.546677 1.51678
                CHANNELS 3 Zrotation Xrotation Yrotation
                JOINT rRing2
                {
                  OFFSET -2.60934 -0.819778 -0.0198488
                  CHANNELS 3 Zrotation Xrotation Yrotation
                  End Site
                  {
                    OFFSET -2.33842 -0.294052 0.168128
                  }
                }
              }
              JOINT rPinky1
              {
                OFFSET -8.27202 -0.0477905 -0.4584
                CHANNELS 3 Zrotation Xrotation Yrotation
                JOINT rPinky2
                {
                  OFFSET -1.82734 -0.647385 -0.700984
                  CHANNELS 3 Zrotation Xrotation Yrotation
                  End Site
                  {
                    OFFSET -1.69225 -0.51767 -0.607171
                  }
                }
              }
            }
          }
        }
      }
      JOINT lCollar
      {
        OFFSET 2.68224 19.2634 -4.8768
        CHANNELS 3 Zrotation Xrotation Yrotation
        JOINT lShldr
        {
          OFFSET 8.77824 -1.95073 1.46304
          CHANNELS 3 Zrotation Xrotation Yrotation
          JOINT lForeArm
          {
            OFFSET 28.1742 -1.7115 0.48768
            CHANNELS 3 Zrotation Xrotation Yrotation
            JOINT lHand
            {
              OFFSET 22.5879 0.773209 7.07136
              CHANNELS 3 Zrotation Xrotation Yrotation
              JOINT lThumb1
              {
                OFFSET 1.2192 -0.487915 3.41376
                CHANNELS 3 Zrotation Xrotation Yrotation
                JOINT lThumb2
                {
                  OFFSET 3.37035 -0.52449 3.41376
                  CHANNELS 3 Zrotation Xrotation Yrotation
                  End Site
                  {
                    OFFSET 1.78271 -1.18214 1.43049
                  }
                }
              }
              JOINT lIndex1
              {
                OFFSET 7.75947 0.938293 5.60832
                CHANNELS 3 Zrotation Xrotation Yrotation
                JOINT lIndex2
                {
                  OFFSET 2.54057 -0.884171 1.56538
                  CHANNELS 3 Zrotation Xrotation Yrotation
                  End Site
                  {
                    OFFSET 1.62519 -0.234802 1.16502
                  }
                }
              }
              JOINT lMid1
              {
                OFFSET 8.24714 1.18213 3.41376
                CHANNELS 3 Zrotation Xrotation Yrotation
                JOINT lMid2
                {
                  OFFSET 3.10165 -0.590103 1.0647
                  CHANNELS 3 Zrotation Xrotation Yrotation
                  End Site
                  {
                    OFFSET 2.48547 -0.328903 0.83742
                  }
                }
              }
              JOINT lRing1
              {
                OFFSET 8.82822 0.546677 1.51678
                CHANNELS 3 Zrotation Xrotation Yrotation
                JOINT lRing2
                {
                  OFFSET 2.60934 -0.819778 -0.0198488
                  CHANNELS 3 Zrotation Xrotation Yrotation
                  End Site
                  {
                    OFFSET 2.33842 -0.294052 0.168128
                  }
                }
              }
              JOINT lPinky1
              {
                OFFSET 8.27202 -0.0477905 -0.4584
                CHANNELS 3 Zrotation Xrotation Yrotation
                JOINT lPinky2
                {
                  OFFSET 1.82734 -0.647385 -0.700984
                  CHANNELS 3 Zrotation Xrotation Yrotation
                  End Site
                  {
                    OFFSET 1.69225 -0.51767 -0.607171
                  }
                }
              }
            }
          }
        }
      }
    }
  }
  JOINT rButtock
  {
    OFFSET -8.77824 4.35084 1.2192
    CHANNELS 3 Zrotation Xrotation Yrotation
    JOINT rThigh
    {
      OFFSET 0 -1.70687 -2.19456
      CHANNELS 3 Zrotation Xrotation Yrotation
      JOINT rShin
      {
        OFFSET 0 -36.8199 0.73152
        CHANNELS 3 Zrotation Xrotation Yrotation
        JOINT rFoot
        {
          OFFSET 0.73152 -45.1104 -5.12064
          CHANNELS 3 Zrotation Xrotation Yrotation
          End Site
          {
            OFFSET -1.1221 -3.69964 12.103
          }
        }
      }
    }
  }
  JOINT lButtock
  {
    OFFSET 8.77824 4.35084 1.2192
    CHANNELS 3 Zrotation Xrotation Yrotation
    JOINT lThigh
    {
      OFFSET 0 -1.70687 -2.19456
      CHANNELS 3 Zrotation Xrotation Yrotation
      JOINT lShin
      {
        OFFSET 0 -36.8199 0.73152
        CHANNELS 3 Zrotation Xrotation Yrotation
        JOINT lFoot
        {
          OFFSET -0.73152 -45.1104 -5.12064
          CHANNELS 3 Zrotation Xrotation Yrotation
          End Site
          {
            OFFSET 1.1221 -3.69964 12.103
          }
        }
      }
    }
  }
}
MOTION
Frames:	4
Frame Time:	0.00833333
86.1304 84.438 -5.67555 -2.65152 -2.6221 90.5694 0.107113 -3.36328 -0.335321 0.41687 1.66675 -0.173447 6.36236 7.43803 1.51529 1.01984 -21.3135 2.33381 -0 0 0 -0 0 0 -2.87111e-014 -4.07947e-013 -2.39823e-015 73.0142 27.6448 16.8012 -12.652 -5.91065 22.8888 0.00147412 -0.0697537 -0.0096995 2.00861e-010 2.13912e-010 6.06635e-010 3.50586e-010 3.71497e-010 1.04614e-009 2.00871e-010 2.13907e-010 6.06627e-010 7.73091 5.47488 0.417314 2.00863e-010 2.13906e-010 6.06639e-010 2.90554 0.965183 0.102902 2.00868e-010 2.13906e-010 6.06638e-010 10.2786 0.731801 0.0259123 2.00854e-010 2.1391e-010 6.06649e-010 2.22167 -0.733487 -0.20892 -2.86774e-014 -4.07951e-013 -2.77134e-015 -84.1092 -15.7203 -1.22371 5.63132 -1.87994 -9.82992 0.92999 26.495 -4.00723 8.14452e-010 -3.51693e-010 -1.14053e-009 1.38206e-009 -6.11722e-010 -1.98342e-009 8.1445e-010 -3.51689e-010 -1.14053e-009 -7.73091 5.47488 -0.417314 8.14456e-010 -3.51692e-010 -1.14054e-009 -2.90554 0.965183 -0.102902 8.14446e-010 -3.5169e-010 -1.14054e-009 -10.2786 0.731801 -0.0259123 8.14458e-010 -3.51691e-010 -1.14054e-009 -2.22167 -0.733487 0.20892 -2.03217e-016 0 -3.88251e-019 7.7693 -8.14177 4.86594 -0.147033 26.145 0.469938 -4.367 -15.8581 -10.4746 2.03217e-016 0 3.88251e-019 6.10506 -35.7483 8.54212 0.837659 55.5262 -1.11773 -1.37269 -13.5943 -5.34664 
87.3294 84.5094 -5.61364 -2.56987 -2.89986 90.2804 0.475889 -3.12628 0.0475888 0.134021 1.67304 -0.0674228 6.43 7.62783 1.47121 1.02917 -21.6275 2.26399 -0 0 0 -0 0 0 -6.88086e-014 2.21925e-013 1.94778e-014 72.0505 28.2955 18.1868 -13.007 -6.17365 23.5884 0.00047707 -1.32964 -0.18677 1.46348e-010 3.42716e-010 3.44682e-010 2.57979e-010 5.94492e-010 5.92943e-010 1.46362e-010 3.42712e-010 3.44669e-010 7.73091 5.47488 0.417314 1.46349e-010 3.42712e-010 3.44687e-010 2.90554 0.965183 0.102902 1.46352e-010 3.42712e-010 3.44688e-010 10.2786 0.731801 0.0259123 1.46342e-010 3.42714e-010 3.447e-010 2.22167 -0.733487 -0.20892 -6.87549e-014 2.21923e-013 1.91517e-014 -83.7494 -20.817 0.410704 5.33156 -1.7529 -9.29536 1.28618 30.6645 -4.76662 7.13685e-010 -5.34666e-010 -1.56646e-009 1.19112e-009 -9.24588e-010 -2.71771e-009 7.13682e-010 -5.34665e-010 -1.56646e-009 -7.73091 5.47488 -0.417314 7.13687e-010 -5.34667e-010 -1.56647e-009 -2.90554 0.965183 -0.102902 7.13679e-010 -5.34666e-010 -1.56647e-009 -10.2786 0.731801 -0.0259123 7.1369e-010 -5.34665e-010 -1.56647e-009 -2.22167 -0.733487 0.20892 -2.03217e-016 0 -3.88251e-019 7.96699 -6.42139 4.71949 -0.138978 24.5933 0.436067 -4.25473 -15.8741 -10.2165 2.03217e-016 0 3.88251e-019 6.281 -36.4499 8.49663 0.738848 53.2183 -0.975102 -1.15327 -14.0391 -4.64136 
88.5117 84.5783 -5.5306 -2.5032 -3.18621 89.9158 0.873242 -2.90732 0.46296 -0.151403 1.69207 0.0489079 6.49 7.80512 1.41576 1.02351 -21.9465 2.16793 -0 0 0 -0 0 0 -1.04035e-013 7.0194e-013 3.91563e-014 71.0724 28.8196 19.5658 -13.3415 -6.43167 24.2451 -0.00579504 -2.53546 -0.356489 9.65868e-011 4.48927e-010 -1.99508e-011 1.72769e-010 7.78233e-010 -3.76276e-011 9.66059e-011 4.48924e-010 -1.99679e-011 7.73091 5.47488 0.417314 9.65889e-011 4.48924e-010 -1.99447e-011 2.90554 0.965183 0.102902 9.65879e-011 4.48924e-010 -1.99417e-011 10.2786 0.731801 0.0259123 9.65824e-011 4.48926e-010 -1.99294e-011 2.22167 -0.733487 -0.20892 -1.03963e-013 7.0194e-013 3.88787e-014 -83.1044 -26.0069 2.15577 5.07429 -1.64719 -8.83664 1.74215 34.8185 -5.60112 5.20584e-010 -6.81733e-010 -1.77559e-009 8.45266e-010 -1.17492e-009 -3.07547e-009 5.2058e-010 -6.81735e-010 -1.77558e-009 -7.73091 5.47488 -0.417314 5.20584e-010 -6.81736e-010 -1.77559e-009 -2.90554 0.965183 -0.102902 5.20578e-010 -6.81735e-010 -1.77559e-009 -10.2786 0.731801 -0.0259123 5.20589e-010 -6.81734e-010 -1.7756e-009 -2.22167 -0.733487 0.20892 -2.03217e-016 0 -3.88251e-019 8.14903 -4.63154 4.53578 -0.130416 22.8572 0.397109 -4.08029 -15.8222 -9.82258 2.03217e-016 0 3.88251e-019 6.47495 -37.0597 8.41411 0.649199 50.7782 -0.840281 -0.892383 -14.4186 -3.84655 
89.6934 84.6455 -5.42122 -2.48573 -3.43298 89.5168 1.219 -2.7628 0.907499 -0.400716 1.76901 0.174795 6.54659 7.90575 1.37537 0.973446 -22.2046 2.08313 -0 0 0 -0 0 0 -1.18917e-013 9.89718e-013 4.97956e-014 70.119 29.1848 20.868 -13.7 -6.71496 24.9525 -0.0155001 -3.55215 -0.499868 7.35345e-012 4.55385e-010 -2.49918e-010 1.851e-011 7.8929e-010 -4.35051e-010 7.37451e-012 4.55383e-010 -2.49938e-010 7.73091 5.47488 0.417314 7.35578e-012 4.55383e-010 -2.49912e-010 2.90554 0.965183 0.102902 7.3528e-012 4.55382e-010 -2.49908e-010 10.2786 0.731801 0.0259123 7.34947e-012 4.55384e-010 -2.49896e-010 2.22167 -0.733487 -0.20892 -1.18837e-013 9.89718e-013 4.95471e-014 -82.1937 -31.0355 3.99269 4.85884 -1.55895 -8.45496 2.26966 38.681 -6.46048 2.74434e-010 -7.07661e-010 -1.72632e-009 4.19483e-010 -1.21618e-009 -2.98448e-009 2.74428e-010 -7.07664e-010 -1.72631e-009 -7.73091 5.47488 -0.417314 2.74432e-010 -7.07664e-010 -1.72631e-009 -2.90554 0.965183 -0.102902 2.74428e-010 -7.07664e-010 -1.72632e-009 -10.2786 0.731801 -0.0259123 2.74438e-010 -7.07661e-010 -1.72633e-009 -2.22167 -0.733487 0.20892 -2.03217e-016 0 -3.88251e-019 8.2437 -2.86065 4.33469 -0.119766 21.0462 0.355486 -3.87009 -15.7903 -9.31301 2.03217e-016 0 3.88251e-019 6.61774 -37.6321 8.27487 0.570237 48.3336 -0.718538 -0.579083 -14.8138 -2.90697 
